<mxfile host="app.diagrams.net" agent="Mozilla/5.0 (Windows NT 10.0; Win64; x64) AppleWebKit/537.36 (KHTML, like Gecko) Chrome/128.0.0.0 YaBrowser/24.10.0.0 Safari/537.36" version="24.8.3">
  <diagram name="Страница — 1" id="tyL-LJRgACF1P0J_mqjf">
    <mxGraphModel dx="2607" dy="2564" grid="1" gridSize="10" guides="1" tooltips="1" connect="1" arrows="1" fold="1" page="1" pageScale="1" pageWidth="827" pageHeight="1169" math="0" shadow="0">
      <root>
        <mxCell id="0" />
        <mxCell id="1" parent="0" />
        <mxCell id="-C6muNnnNIedRkviX2KE-20" style="edgeStyle=orthogonalEdgeStyle;rounded=0;orthogonalLoop=1;jettySize=auto;html=1;exitX=0.75;exitY=0;exitDx=0;exitDy=0;entryX=0;entryY=0.25;entryDx=0;entryDy=0;strokeWidth=3;strokeColor=#000000;" parent="1" source="-C6muNnnNIedRkviX2KE-14" target="-C6muNnnNIedRkviX2KE-19" edge="1">
          <mxGeometry relative="1" as="geometry" />
        </mxCell>
        <mxCell id="-C6muNnnNIedRkviX2KE-22" style="edgeStyle=orthogonalEdgeStyle;rounded=0;orthogonalLoop=1;jettySize=auto;html=1;exitX=0.986;exitY=0.053;exitDx=0;exitDy=0;entryX=0;entryY=0.5;entryDx=0;entryDy=0;exitPerimeter=0;strokeWidth=3;strokeColor=#000000;" parent="1" source="-C6muNnnNIedRkviX2KE-14" target="-C6muNnnNIedRkviX2KE-15" edge="1">
          <mxGeometry relative="1" as="geometry" />
        </mxCell>
        <mxCell id="-C6muNnnNIedRkviX2KE-23" style="edgeStyle=orthogonalEdgeStyle;rounded=0;orthogonalLoop=1;jettySize=auto;html=1;exitX=1;exitY=0.5;exitDx=0;exitDy=0;entryX=0;entryY=0.5;entryDx=0;entryDy=0;strokeWidth=3;strokeColor=#000000;" parent="1" source="-C6muNnnNIedRkviX2KE-14" target="-C6muNnnNIedRkviX2KE-16" edge="1">
          <mxGeometry relative="1" as="geometry" />
        </mxCell>
        <mxCell id="-C6muNnnNIedRkviX2KE-24" style="edgeStyle=orthogonalEdgeStyle;rounded=0;orthogonalLoop=1;jettySize=auto;html=1;exitX=1.011;exitY=0.917;exitDx=0;exitDy=0;entryX=0;entryY=0.5;entryDx=0;entryDy=0;exitPerimeter=0;strokeWidth=3;strokeColor=#000000;" parent="1" source="-C6muNnnNIedRkviX2KE-14" target="-C6muNnnNIedRkviX2KE-17" edge="1">
          <mxGeometry relative="1" as="geometry" />
        </mxCell>
        <mxCell id="-C6muNnnNIedRkviX2KE-14" value="" style="rounded=1;whiteSpace=wrap;html=1;" parent="1" vertex="1">
          <mxGeometry y="430" width="190" height="410" as="geometry" />
        </mxCell>
        <mxCell id="-C6muNnnNIedRkviX2KE-15" value="" style="rounded=1;whiteSpace=wrap;html=1;" parent="1" vertex="1">
          <mxGeometry x="260" y="50" width="190" height="410" as="geometry" />
        </mxCell>
        <mxCell id="-C6muNnnNIedRkviX2KE-16" value="" style="rounded=1;whiteSpace=wrap;html=1;" parent="1" vertex="1">
          <mxGeometry x="260" y="530" width="190" height="410" as="geometry" />
        </mxCell>
        <mxCell id="-C6muNnnNIedRkviX2KE-45" style="edgeStyle=orthogonalEdgeStyle;rounded=0;orthogonalLoop=1;jettySize=auto;html=1;exitX=1;exitY=0.5;exitDx=0;exitDy=0;strokeWidth=3;strokeColor=#000000;" parent="1" source="-C6muNnnNIedRkviX2KE-17" target="-C6muNnnNIedRkviX2KE-44" edge="1">
          <mxGeometry relative="1" as="geometry" />
        </mxCell>
        <mxCell id="-C6muNnnNIedRkviX2KE-17" value="" style="rounded=1;whiteSpace=wrap;html=1;" parent="1" vertex="1">
          <mxGeometry x="265.5" y="1020" width="190" height="410" as="geometry" />
        </mxCell>
        <mxCell id="-C6muNnnNIedRkviX2KE-48" style="edgeStyle=orthogonalEdgeStyle;rounded=0;orthogonalLoop=1;jettySize=auto;html=1;exitX=1;exitY=0.5;exitDx=0;exitDy=0;entryX=0;entryY=0.5;entryDx=0;entryDy=0;strokeWidth=3;strokeColor=#000000;" parent="1" source="-C6muNnnNIedRkviX2KE-18" target="-C6muNnnNIedRkviX2KE-46" edge="1">
          <mxGeometry relative="1" as="geometry" />
        </mxCell>
        <mxCell id="-C6muNnnNIedRkviX2KE-18" value="" style="rounded=1;whiteSpace=wrap;html=1;" parent="1" vertex="1">
          <mxGeometry x="265.5" y="1520" width="190" height="410" as="geometry" />
        </mxCell>
        <mxCell id="-C6muNnnNIedRkviX2KE-36" style="edgeStyle=orthogonalEdgeStyle;rounded=0;orthogonalLoop=1;jettySize=auto;html=1;exitX=1;exitY=0.5;exitDx=0;exitDy=0;entryX=0;entryY=0.5;entryDx=0;entryDy=0;strokeWidth=3;strokeColor=#000000;" parent="1" source="-C6muNnnNIedRkviX2KE-19" target="-C6muNnnNIedRkviX2KE-32" edge="1">
          <mxGeometry relative="1" as="geometry" />
        </mxCell>
        <mxCell id="-C6muNnnNIedRkviX2KE-19" value="" style="rounded=1;whiteSpace=wrap;html=1;" parent="1" vertex="1">
          <mxGeometry x="260" y="-430" width="190" height="410" as="geometry" />
        </mxCell>
        <mxCell id="-C6muNnnNIedRkviX2KE-21" style="edgeStyle=orthogonalEdgeStyle;rounded=0;orthogonalLoop=1;jettySize=auto;html=1;entryX=0;entryY=0.5;entryDx=0;entryDy=0;exitX=0.909;exitY=0.997;exitDx=0;exitDy=0;exitPerimeter=0;strokeWidth=3;strokeColor=#000000;" parent="1" source="-C6muNnnNIedRkviX2KE-14" target="-C6muNnnNIedRkviX2KE-18" edge="1">
          <mxGeometry relative="1" as="geometry">
            <mxPoint x="90" y="990" as="sourcePoint" />
            <Array as="points">
              <mxPoint x="173" y="940" />
              <mxPoint x="90" y="940" />
              <mxPoint x="90" y="1725" />
            </Array>
          </mxGeometry>
        </mxCell>
        <mxCell id="-C6muNnnNIedRkviX2KE-25" value="Главный экран приложения.&lt;br&gt;&lt;font style=&quot;font-size: 20px;&quot;&gt;&lt;b&gt;экран #0.0&lt;/b&gt;&lt;/font&gt;" style="text;html=1;align=center;verticalAlign=middle;whiteSpace=wrap;rounded=0;fontSize=17;" parent="1" vertex="1">
          <mxGeometry x="15" y="840" width="160" height="80" as="geometry" />
        </mxCell>
        <mxCell id="-C6muNnnNIedRkviX2KE-27" value="Меню 1.&lt;br&gt;Выбор фичи.&lt;br&gt;&lt;font style=&quot;font-size: 20px;&quot;&gt;&lt;b&gt;экран #0.1&lt;/b&gt;&lt;/font&gt;" style="text;html=1;align=center;verticalAlign=middle;whiteSpace=wrap;rounded=0;fontFamily=Helvetica;fontSize=17;fontColor=default;" parent="1" vertex="1">
          <mxGeometry x="302.5" y="-20" width="117.5" height="70" as="geometry" />
        </mxCell>
        <mxCell id="-C6muNnnNIedRkviX2KE-28" value="Страница с открытым видео.&lt;br&gt;&lt;font style=&quot;font-size: 20px;&quot;&gt;&lt;b&gt;экран #1.0&lt;/b&gt;&lt;/font&gt;" style="text;html=1;align=center;verticalAlign=middle;whiteSpace=wrap;rounded=0;fontFamily=Helvetica;fontSize=17;fontColor=default;" parent="1" vertex="1">
          <mxGeometry x="264.5" y="460" width="192" height="70" as="geometry" />
        </mxCell>
        <mxCell id="-C6muNnnNIedRkviX2KE-29" value="Страница с открытым shorts.&lt;br&gt;&lt;font style=&quot;font-size: 20px;&quot;&gt;&lt;b&gt;экран #2.0&lt;/b&gt;&lt;/font&gt;" style="text;html=1;align=center;verticalAlign=middle;whiteSpace=wrap;rounded=0;fontFamily=Helvetica;fontSize=17;fontColor=default;" parent="1" vertex="1">
          <mxGeometry x="264.5" y="940" width="192" height="70" as="geometry" />
        </mxCell>
        <mxCell id="-C6muNnnNIedRkviX2KE-30" value="Страница подписок.&lt;br&gt;&lt;font style=&quot;font-size: 20px;&quot;&gt;&lt;b&gt;экран #3.0&lt;/b&gt;&lt;/font&gt;" style="text;html=1;align=center;verticalAlign=middle;whiteSpace=wrap;rounded=0;fontFamily=Helvetica;fontSize=17;fontColor=default;" parent="1" vertex="1">
          <mxGeometry x="259" y="1440" width="192" height="70" as="geometry" />
        </mxCell>
        <mxCell id="-C6muNnnNIedRkviX2KE-31" value="Страница профиля.&lt;br&gt;&lt;font style=&quot;font-size: 20px;&quot;&gt;&lt;b&gt;экран #4.0&lt;/b&gt;&lt;/font&gt;" style="text;html=1;align=center;verticalAlign=middle;whiteSpace=wrap;rounded=0;fontFamily=Helvetica;fontSize=17;fontColor=default;" parent="1" vertex="1">
          <mxGeometry x="260" y="1940" width="192" height="70" as="geometry" />
        </mxCell>
        <mxCell id="-C6muNnnNIedRkviX2KE-32" value="" style="rounded=1;whiteSpace=wrap;html=1;" parent="1" vertex="1">
          <mxGeometry x="570" y="-430" width="190" height="410" as="geometry" />
        </mxCell>
        <mxCell id="-C6muNnnNIedRkviX2KE-33" value="Меню 2.&lt;br&gt;Выбор папок.&lt;br&gt;&lt;font style=&quot;font-size: 20px;&quot;&gt;&lt;b&gt;экран #0.2&lt;/b&gt;&lt;/font&gt;" style="text;html=1;align=center;verticalAlign=middle;whiteSpace=wrap;rounded=0;fontFamily=Helvetica;fontSize=17;fontColor=default;" parent="1" vertex="1">
          <mxGeometry x="612.5" y="-20" width="117.5" height="70" as="geometry" />
        </mxCell>
        <mxCell id="-C6muNnnNIedRkviX2KE-38" value="Переход на&lt;br style=&quot;font-size: 17px;&quot;&gt;&lt;b&gt;&lt;font style=&quot;font-size: 20px;&quot;&gt;экран #0.1&lt;/font&gt;&lt;/b&gt;" style="whiteSpace=wrap;html=1;shape=mxgraph.basic.cloud_rect;fontSize=17;" parent="1" vertex="1">
          <mxGeometry x="620" y="460" width="120" height="90" as="geometry" />
        </mxCell>
        <mxCell id="-C6muNnnNIedRkviX2KE-41" style="edgeStyle=orthogonalEdgeStyle;rounded=0;orthogonalLoop=1;jettySize=auto;html=1;exitX=1;exitY=0.5;exitDx=0;exitDy=0;entryX=0.494;entryY=0.011;entryDx=0;entryDy=0;entryPerimeter=0;strokeWidth=3;strokeColor=#000000;" parent="1" source="-C6muNnnNIedRkviX2KE-15" target="-C6muNnnNIedRkviX2KE-38" edge="1">
          <mxGeometry relative="1" as="geometry" />
        </mxCell>
        <mxCell id="-C6muNnnNIedRkviX2KE-43" style="edgeStyle=orthogonalEdgeStyle;rounded=0;orthogonalLoop=1;jettySize=auto;html=1;exitX=1;exitY=0.5;exitDx=0;exitDy=0;entryX=0.572;entryY=0.989;entryDx=0;entryDy=0;entryPerimeter=0;strokeWidth=3;strokeColor=#000000;" parent="1" source="-C6muNnnNIedRkviX2KE-16" target="-C6muNnnNIedRkviX2KE-38" edge="1">
          <mxGeometry relative="1" as="geometry" />
        </mxCell>
        <mxCell id="-C6muNnnNIedRkviX2KE-44" value="Переход на&lt;br style=&quot;font-size: 17px;&quot;&gt;&lt;b&gt;&lt;font style=&quot;font-size: 20px;&quot;&gt;экран #0.2&lt;/font&gt;&lt;/b&gt;" style="whiteSpace=wrap;html=1;shape=mxgraph.basic.cloud_rect;fontSize=17;" parent="1" vertex="1">
          <mxGeometry x="605" y="1180" width="120" height="90" as="geometry" />
        </mxCell>
        <mxCell id="-C6muNnnNIedRkviX2KE-46" value="" style="rounded=1;whiteSpace=wrap;html=1;" parent="1" vertex="1">
          <mxGeometry x="572.75" y="1520" width="190" height="410" as="geometry" />
        </mxCell>
        <mxCell id="-C6muNnnNIedRkviX2KE-47" value="Страница папок.&lt;br&gt;&lt;font style=&quot;font-size: 20px;&quot;&gt;&lt;b&gt;экран #4.1&lt;/b&gt;&lt;/font&gt;" style="text;html=1;align=center;verticalAlign=middle;whiteSpace=wrap;rounded=0;fontFamily=Helvetica;fontSize=17;fontColor=default;" parent="1" vertex="1">
          <mxGeometry x="567.25" y="1940" width="192" height="70" as="geometry" />
        </mxCell>
        <mxCell id="-C6muNnnNIedRkviX2KE-50" value="" style="rounded=1;whiteSpace=wrap;html=1;" parent="1" vertex="1">
          <mxGeometry x="762.75" y="570" width="190" height="410" as="geometry" />
        </mxCell>
        <mxCell id="-C6muNnnNIedRkviX2KE-51" value="Меню 3.&lt;br&gt;Выбор каналов.&lt;br&gt;&lt;font style=&quot;font-size: 20px;&quot;&gt;&lt;b&gt;экран #0.3&lt;/b&gt;&lt;/font&gt;" style="text;html=1;align=center;verticalAlign=middle;whiteSpace=wrap;rounded=0;fontFamily=Helvetica;fontSize=17;fontColor=default;" parent="1" vertex="1">
          <mxGeometry x="805.25" y="980" width="144.75" height="70" as="geometry" />
        </mxCell>
        <mxCell id="-C6muNnnNIedRkviX2KE-52" value="" style="rounded=1;whiteSpace=wrap;html=1;" parent="1" vertex="1">
          <mxGeometry x="1360" y="570" width="190" height="410" as="geometry" />
        </mxCell>
        <mxCell id="-C6muNnnNIedRkviX2KE-53" value="Страница просмотра папки.&lt;br&gt;&lt;font style=&quot;font-size: 20px;&quot;&gt;&lt;b&gt;экран #5.0&lt;/b&gt;&lt;/font&gt;" style="text;html=1;align=center;verticalAlign=middle;whiteSpace=wrap;rounded=0;fontFamily=Helvetica;fontSize=17;fontColor=default;" parent="1" vertex="1">
          <mxGeometry x="1364.5" y="980" width="192" height="70" as="geometry" />
        </mxCell>
        <mxCell id="-C6muNnnNIedRkviX2KE-60" value="" style="html=1;labelBackgroundColor=#ffffff;startArrow=none;startFill=0;startSize=6;endArrow=classic;endFill=1;endSize=6;jettySize=auto;orthogonalLoop=1;strokeWidth=3;dashed=1;fontSize=14;rounded=0;entryX=0;entryY=0.5;entryDx=0;entryDy=0;exitX=1;exitY=0.5;exitDx=0;exitDy=0;spacing=6;" parent="1" source="-C6muNnnNIedRkviX2KE-50" target="-C6muNnnNIedRkviX2KE-52" edge="1">
          <mxGeometry width="60" height="60" relative="1" as="geometry">
            <mxPoint x="820" y="790" as="sourcePoint" />
            <mxPoint x="880" y="730" as="targetPoint" />
          </mxGeometry>
        </mxCell>
        <mxCell id="-C6muNnnNIedRkviX2KE-61" value="" style="html=1;labelBackgroundColor=#ffffff;startArrow=none;startFill=0;startSize=6;endArrow=classic;endFill=1;endSize=6;jettySize=auto;orthogonalLoop=1;strokeWidth=3;dashed=1;fontSize=14;rounded=0;entryX=0;entryY=0;entryDx=0;entryDy=0;exitX=1;exitY=1;exitDx=0;exitDy=0;spacing=6;" parent="1" source="-C6muNnnNIedRkviX2KE-32" target="-C6muNnnNIedRkviX2KE-52" edge="1">
          <mxGeometry width="60" height="60" relative="1" as="geometry">
            <mxPoint x="900" y="90" as="sourcePoint" />
            <mxPoint x="1307" y="90" as="targetPoint" />
          </mxGeometry>
        </mxCell>
        <mxCell id="-C6muNnnNIedRkviX2KE-63" value="" style="endArrow=classic;html=1;rounded=0;exitX=1;exitY=0;exitDx=0;exitDy=0;entryX=0;entryY=1;entryDx=0;entryDy=0;strokeColor=#676565;opacity=70;align=center;verticalAlign=middle;fontFamily=Helvetica;fontSize=11;fontColor=default;labelBackgroundColor=default;" parent="1" source="9P0sogdfffshUX55kIWg-8" target="-C6muNnnNIedRkviX2KE-52" edge="1">
          <mxGeometry width="50" height="50" relative="1" as="geometry">
            <mxPoint x="830" y="960" as="sourcePoint" />
            <mxPoint x="880" y="910" as="targetPoint" />
          </mxGeometry>
        </mxCell>
        <mxCell id="-C6muNnnNIedRkviX2KE-72" style="edgeStyle=orthogonalEdgeStyle;rounded=0;orthogonalLoop=1;jettySize=auto;html=1;exitX=0;exitY=1;exitDx=0;exitDy=0;entryX=0.5;entryY=0;entryDx=0;entryDy=0;strokeWidth=3;strokeColor=#000000;" parent="1" source="-C6muNnnNIedRkviX2KE-66" target="-C6muNnnNIedRkviX2KE-67" edge="1">
          <mxGeometry relative="1" as="geometry" />
        </mxCell>
        <mxCell id="-C6muNnnNIedRkviX2KE-73" style="edgeStyle=orthogonalEdgeStyle;rounded=0;orthogonalLoop=1;jettySize=auto;html=1;exitX=1;exitY=1;exitDx=0;exitDy=0;entryX=0.5;entryY=0;entryDx=0;entryDy=0;strokeWidth=3;strokeColor=#000000;" parent="1" source="-C6muNnnNIedRkviX2KE-66" target="-C6muNnnNIedRkviX2KE-69" edge="1">
          <mxGeometry relative="1" as="geometry" />
        </mxCell>
        <mxCell id="-C6muNnnNIedRkviX2KE-66" value="В случае если канал уже содержится в определённой папке, то:&lt;br&gt;папка для экрана 0.2 или канал для экрана 0.3 не должны иметь возможность быть выделенными пользователем" style="rounded=0;whiteSpace=wrap;html=1;" parent="1" vertex="1">
          <mxGeometry x="1760" y="-70" width="500" height="250" as="geometry" />
        </mxCell>
        <mxCell id="-C6muNnnNIedRkviX2KE-67" value="" style="rounded=1;whiteSpace=wrap;html=1;" parent="1" vertex="1">
          <mxGeometry x="1666" y="305" width="190" height="410" as="geometry" />
        </mxCell>
        <mxCell id="-C6muNnnNIedRkviX2KE-68" value="Меню 2.&lt;br&gt;Выбор папки.&lt;br&gt;&lt;font style=&quot;font-size: 20px;&quot;&gt;&lt;b&gt;экран #0.2&lt;/b&gt;&lt;/font&gt;" style="text;html=1;align=center;verticalAlign=middle;whiteSpace=wrap;rounded=0;fontFamily=Helvetica;fontSize=17;fontColor=default;" parent="1" vertex="1">
          <mxGeometry x="1708.5" y="715" width="117.5" height="70" as="geometry" />
        </mxCell>
        <mxCell id="-C6muNnnNIedRkviX2KE-69" value="" style="rounded=1;whiteSpace=wrap;html=1;" parent="1" vertex="1">
          <mxGeometry x="2164" y="305" width="190" height="410" as="geometry" />
        </mxCell>
        <mxCell id="-C6muNnnNIedRkviX2KE-70" value="Меню 3.&lt;br&gt;Выбор каналов.&lt;br&gt;&lt;font style=&quot;font-size: 20px;&quot;&gt;&lt;b&gt;экран #0.3&lt;/b&gt;&lt;/font&gt;" style="text;html=1;align=center;verticalAlign=middle;whiteSpace=wrap;rounded=0;fontFamily=Helvetica;fontSize=17;fontColor=default;" parent="1" vertex="1">
          <mxGeometry x="2176.5" y="715" width="144.75" height="70" as="geometry" />
        </mxCell>
        <mxCell id="-C6muNnnNIedRkviX2KE-74" value="Кнопка &quot;назад&quot; (&amp;lt;-) возвращает на ту предыдущую страницу, с которой пользователь зашёл в текущее меню или страницу.&lt;br style=&quot;font-size: 15px;&quot;&gt;т.е. для нашего макета:&lt;div style=&quot;font-size: 15px;&quot;&gt;&lt;br style=&quot;font-size: 15px;&quot;&gt;&lt;/div&gt;&lt;div style=&quot;font-size: 15px;&quot;&gt;0.3 возвращается в 4.1&lt;br style=&quot;font-size: 15px;&quot;&gt;4.1 возвращается в 4.0&lt;/div&gt;&lt;div style=&quot;font-size: 15px;&quot;&gt;0.2 возвращается в 3.0 или 0.1&lt;br style=&quot;font-size: 15px;&quot;&gt;&lt;/div&gt;&lt;div style=&quot;font-size: 15px;&quot;&gt;0.1 возвращается в 2.0 или 1.0 или 0.0&lt;br style=&quot;font-size: 15px;&quot;&gt;&lt;/div&gt;" style="rounded=0;whiteSpace=wrap;html=1;rotation=0;fontSize=15;" parent="1" vertex="1">
          <mxGeometry x="1680" y="1180" width="290" height="510" as="geometry" />
        </mxCell>
        <mxCell id="-C6muNnnNIedRkviX2KE-75" value="После нажатия кнопки &quot;Готово&quot; на экранах 0.3 или 0.2 все выбранные каналы попадают в выбранную папку и запускается череда авто нажатий кнопки &quot;назад&quot; пока не вернётся на предыдущий экран" style="rounded=0;whiteSpace=wrap;html=1;rotation=0;strokeColor=default;align=center;verticalAlign=middle;fontFamily=Helvetica;fontSize=15;fontColor=default;fillColor=default;" parent="1" vertex="1">
          <mxGeometry x="2120" y="1300" width="320" height="320" as="geometry" />
        </mxCell>
        <mxCell id="-C6muNnnNIedRkviX2KE-76" value="Краевой случай №1" style="text;html=1;align=center;verticalAlign=middle;whiteSpace=wrap;rounded=0;fontFamily=Helvetica;fontSize=20;fontColor=default;" parent="1" vertex="1">
          <mxGeometry x="1902.5" y="180" width="215" height="40" as="geometry" />
        </mxCell>
        <mxCell id="-C6muNnnNIedRkviX2KE-79" value="Разъяснение №1" style="text;html=1;align=center;verticalAlign=middle;whiteSpace=wrap;rounded=0;fontFamily=Helvetica;fontSize=20;fontColor=default;" parent="1" vertex="1">
          <mxGeometry x="1720.1200000000001" y="1680" width="195.25" height="50" as="geometry" />
        </mxCell>
        <mxCell id="-C6muNnnNIedRkviX2KE-81" value="Разъяснение №2" style="text;html=1;align=center;verticalAlign=middle;whiteSpace=wrap;rounded=0;fontFamily=Helvetica;fontSize=20;fontColor=default;" parent="1" vertex="1">
          <mxGeometry x="2161.37" y="1620" width="195.25" height="50" as="geometry" />
        </mxCell>
        <mxCell id="_7QspawQS4Bvhs6pEfHS-41" value="" style="group" parent="1" vertex="1" connectable="0">
          <mxGeometry x="10" y="440" width="110" height="20" as="geometry" />
        </mxCell>
        <mxCell id="_7QspawQS4Bvhs6pEfHS-35" value="&lt;font size=&quot;1&quot; style=&quot;&quot;&gt;&lt;b style=&quot;font-size: 20px;&quot;&gt;YouTube&lt;/b&gt;&lt;/font&gt;" style="text;html=1;align=center;verticalAlign=middle;whiteSpace=wrap;rounded=0;" parent="_7QspawQS4Bvhs6pEfHS-41" vertex="1">
          <mxGeometry x="30" width="80" height="20" as="geometry" />
        </mxCell>
        <mxCell id="_7QspawQS4Bvhs6pEfHS-36" value="" style="group" parent="_7QspawQS4Bvhs6pEfHS-41" vertex="1" connectable="0">
          <mxGeometry width="30" height="20" as="geometry" />
        </mxCell>
        <mxCell id="_7QspawQS4Bvhs6pEfHS-37" value="" style="rounded=1;whiteSpace=wrap;html=1;arcSize=33;fillColor=#f8cecc;strokeColor=#b85450;" parent="_7QspawQS4Bvhs6pEfHS-36" vertex="1">
          <mxGeometry width="30" height="20" as="geometry" />
        </mxCell>
        <mxCell id="_7QspawQS4Bvhs6pEfHS-38" value="" style="triangle;whiteSpace=wrap;html=1;" parent="_7QspawQS4Bvhs6pEfHS-36" vertex="1">
          <mxGeometry x="9.15" width="14.85" height="20" as="geometry" />
        </mxCell>
        <mxCell id="_7QspawQS4Bvhs6pEfHS-45" value="" style="group" parent="1" vertex="1" connectable="0">
          <mxGeometry x="1" y="775.59" width="42.5" height="58" as="geometry" />
        </mxCell>
        <mxCell id="_7QspawQS4Bvhs6pEfHS-43" value="" style="sketch=0;pointerEvents=1;shadow=0;dashed=0;html=1;strokeColor=none;fillColor=#505050;labelPosition=center;verticalLabelPosition=bottom;verticalAlign=top;outlineConnect=0;align=center;shape=mxgraph.office.concepts.home;" parent="_7QspawQS4Bvhs6pEfHS-45" vertex="1">
          <mxGeometry width="39" height="38" as="geometry" />
        </mxCell>
        <mxCell id="_7QspawQS4Bvhs6pEfHS-44" value="Главная" style="text;html=1;align=center;verticalAlign=middle;whiteSpace=wrap;rounded=0;" parent="_7QspawQS4Bvhs6pEfHS-45" vertex="1">
          <mxGeometry x="9" y="38" width="30" height="20" as="geometry" />
        </mxCell>
        <mxCell id="_7QspawQS4Bvhs6pEfHS-46" value="" style="group" parent="1" vertex="1" connectable="0">
          <mxGeometry x="40" y="770" width="56.83" height="63.59000000000003" as="geometry" />
        </mxCell>
        <mxCell id="_7QspawQS4Bvhs6pEfHS-47" value="" style="rounded=1;whiteSpace=wrap;html=1;direction=south;rotation=65;arcSize=50;" parent="_7QspawQS4Bvhs6pEfHS-46" vertex="1">
          <mxGeometry x="17.050317232710242" y="-4.4062082353705865" width="22.249365534579542" height="46.84898126257433" as="geometry" />
        </mxCell>
        <mxCell id="_7QspawQS4Bvhs6pEfHS-48" value="" style="rounded=1;whiteSpace=wrap;html=1;direction=south;rotation=65;arcSize=50;" parent="_7QspawQS4Bvhs6pEfHS-46" vertex="1">
          <mxGeometry x="17.050317232710242" y="11.147226972796254" width="22.249365534579542" height="46.84898126257433" as="geometry" />
        </mxCell>
        <mxCell id="_7QspawQS4Bvhs6pEfHS-49" value="" style="triangle;whiteSpace=wrap;html=1;fillColor=default;" parent="_7QspawQS4Bvhs6pEfHS-46" vertex="1">
          <mxGeometry x="19.77139740408157" y="16.520381013592303" width="22.929635577422374" height="24.281734291230958" as="geometry" />
        </mxCell>
        <mxCell id="_7QspawQS4Bvhs6pEfHS-50" value="Shorts" style="text;html=1;align=center;verticalAlign=middle;whiteSpace=wrap;rounded=0;" parent="_7QspawQS4Bvhs6pEfHS-46" vertex="1">
          <mxGeometry x="13.17999999999995" y="53.59000000000003" width="30" height="10" as="geometry" />
        </mxCell>
        <mxCell id="_7QspawQS4Bvhs6pEfHS-71" value="" style="ellipse;whiteSpace=wrap;html=1;aspect=fixed;fillColor=#4C303B;fontColor=#ffffff;strokeColor=#3700CC;opacity=50;" parent="_7QspawQS4Bvhs6pEfHS-46" vertex="1">
          <mxGeometry x="2.34" y="2.83" width="51.66" height="51.66" as="geometry" />
        </mxCell>
        <mxCell id="_7QspawQS4Bvhs6pEfHS-62" value="" style="group" parent="1" vertex="1" connectable="0">
          <mxGeometry x="90" y="780" width="52.97" height="51.85000000000002" as="geometry" />
        </mxCell>
        <mxCell id="_7QspawQS4Bvhs6pEfHS-59" value="Подписки" style="text;html=1;align=center;verticalAlign=middle;whiteSpace=wrap;rounded=0;" parent="_7QspawQS4Bvhs6pEfHS-62" vertex="1">
          <mxGeometry y="41.85000000000002" width="50" height="10" as="geometry" />
        </mxCell>
        <mxCell id="_7QspawQS4Bvhs6pEfHS-60" value="" style="rounded=0;whiteSpace=wrap;html=1;" parent="_7QspawQS4Bvhs6pEfHS-62" vertex="1">
          <mxGeometry width="48.25" height="36.25" as="geometry" />
        </mxCell>
        <mxCell id="_7QspawQS4Bvhs6pEfHS-61" value="" style="triangle;whiteSpace=wrap;html=1;" parent="_7QspawQS4Bvhs6pEfHS-62" vertex="1">
          <mxGeometry x="10.879999999999995" y="2.1299999999999955" width="28.25" height="28.87" as="geometry" />
        </mxCell>
        <mxCell id="_7QspawQS4Bvhs6pEfHS-76" value="" style="ellipse;whiteSpace=wrap;html=1;aspect=fixed;fillColor=#4C303B;fontColor=#ffffff;strokeColor=#3700CC;opacity=50;" parent="_7QspawQS4Bvhs6pEfHS-62" vertex="1">
          <mxGeometry x="-0.9299999999999997" y="-7.8" width="51.85" height="51.85" as="geometry" />
        </mxCell>
        <mxCell id="_7QspawQS4Bvhs6pEfHS-66" value="" style="group" parent="1" vertex="1" connectable="0">
          <mxGeometry x="140" y="770" width="52.5" height="61.22000000000003" as="geometry" />
        </mxCell>
        <mxCell id="_7QspawQS4Bvhs6pEfHS-63" value="" style="ellipse;whiteSpace=wrap;html=1;aspect=fixed;" parent="_7QspawQS4Bvhs6pEfHS-66" vertex="1">
          <mxGeometry width="50" height="50" as="geometry" />
        </mxCell>
        <mxCell id="_7QspawQS4Bvhs6pEfHS-64" value="" style="shape=actor;whiteSpace=wrap;html=1;" parent="_7QspawQS4Bvhs6pEfHS-66" vertex="1">
          <mxGeometry x="11.5" y="6.8700000000000045" width="27" height="33.13" as="geometry" />
        </mxCell>
        <mxCell id="_7QspawQS4Bvhs6pEfHS-65" value="Вы" style="text;html=1;align=center;verticalAlign=middle;whiteSpace=wrap;rounded=0;" parent="_7QspawQS4Bvhs6pEfHS-66" vertex="1">
          <mxGeometry x="11.5" y="52.5" width="27" height="8.72" as="geometry" />
        </mxCell>
        <mxCell id="_7QspawQS4Bvhs6pEfHS-82" value="" style="ellipse;whiteSpace=wrap;html=1;aspect=fixed;fillColor=#4C303B;fontColor=#ffffff;strokeColor=#3700CC;opacity=50;" parent="_7QspawQS4Bvhs6pEfHS-66" vertex="1">
          <mxGeometry x="-2.5" y="4.36" width="52.5" height="52.5" as="geometry" />
        </mxCell>
        <mxCell id="_7QspawQS4Bvhs6pEfHS-67" value="&lt;font style=&quot;font-size: 15px;&quot;&gt;Видео 1&lt;/font&gt;" style="rounded=0;whiteSpace=wrap;html=1;" parent="1" vertex="1">
          <mxGeometry x="10" y="510" width="159" height="80" as="geometry" />
        </mxCell>
        <mxCell id="_7QspawQS4Bvhs6pEfHS-68" value="" style="html=1;verticalLabelPosition=bottom;align=center;labelBackgroundColor=#ffffff;verticalAlign=top;strokeWidth=2;strokeColor=#0080F0;shadow=0;dashed=0;shape=mxgraph.ios7.icons.most_viewed;pointerEvents=1" parent="1" vertex="1">
          <mxGeometry x="140.8" y="600" width="28.2" height="22.8" as="geometry" />
        </mxCell>
        <mxCell id="_7QspawQS4Bvhs6pEfHS-69" value="" style="ellipse;whiteSpace=wrap;html=1;aspect=fixed;fillColor=#4C303B;fontColor=#ffffff;strokeColor=#3700CC;opacity=50;" parent="1" vertex="1">
          <mxGeometry x="130" y="591" width="49.9" height="49.9" as="geometry" />
        </mxCell>
        <mxCell id="_7QspawQS4Bvhs6pEfHS-84" value="&lt;b&gt;&lt;font color=&quot;#ff6666&quot; style=&quot;font-size: 16px;&quot;&gt;0&lt;/font&gt;&lt;/b&gt;" style="text;html=1;align=center;verticalAlign=middle;whiteSpace=wrap;rounded=0;" parent="1" vertex="1">
          <mxGeometry x="115.00000000000004" y="611" width="60" height="30" as="geometry" />
        </mxCell>
        <mxCell id="_7QspawQS4Bvhs6pEfHS-85" value="&lt;b&gt;&lt;font color=&quot;#ff6666&quot; style=&quot;font-size: 24px;&quot;&gt;0&lt;/font&gt;&lt;/b&gt;" style="text;html=1;align=center;verticalAlign=middle;whiteSpace=wrap;rounded=0;" parent="1" vertex="1">
          <mxGeometry x="86.83" y="360" width="80" height="50" as="geometry" />
        </mxCell>
        <mxCell id="_7QspawQS4Bvhs6pEfHS-86" value="&lt;b&gt;&lt;font color=&quot;#ff6666&quot; style=&quot;font-size: 16px;&quot;&gt;2&lt;/font&gt;&lt;/b&gt;" style="text;html=1;align=center;verticalAlign=middle;whiteSpace=wrap;rounded=0;" parent="1" vertex="1">
          <mxGeometry x="40.00000000000004" y="739.9999999999999" width="60" height="30" as="geometry" />
        </mxCell>
        <mxCell id="_7QspawQS4Bvhs6pEfHS-88" value="&lt;b&gt;&lt;font color=&quot;#ff6666&quot; style=&quot;font-size: 16px;&quot;&gt;3&lt;/font&gt;&lt;/b&gt;" style="text;html=1;align=center;verticalAlign=middle;whiteSpace=wrap;rounded=0;" parent="1" vertex="1">
          <mxGeometry x="86.49000000000004" y="739.9999999999999" width="60" height="30" as="geometry" />
        </mxCell>
        <mxCell id="_7QspawQS4Bvhs6pEfHS-89" value="&lt;b&gt;&lt;font color=&quot;#ff6666&quot; style=&quot;font-size: 16px;&quot;&gt;4&lt;/font&gt;&lt;/b&gt;" style="text;html=1;align=center;verticalAlign=middle;whiteSpace=wrap;rounded=0;" parent="1" vertex="1">
          <mxGeometry x="136.25000000000003" y="739.9999999999999" width="60" height="30" as="geometry" />
        </mxCell>
        <mxCell id="_7QspawQS4Bvhs6pEfHS-90" value="&lt;b&gt;&lt;font color=&quot;#ff6666&quot; style=&quot;font-size: 24px;&quot;&gt;2&lt;/font&gt;&lt;/b&gt;" style="text;html=1;align=center;verticalAlign=middle;whiteSpace=wrap;rounded=0;" parent="1" vertex="1">
          <mxGeometry x="169" y="591" width="80" height="50" as="geometry" />
        </mxCell>
        <mxCell id="_7QspawQS4Bvhs6pEfHS-91" value="&lt;b&gt;&lt;font color=&quot;#ff6666&quot; style=&quot;font-size: 24px;&quot;&gt;3&lt;/font&gt;&lt;/b&gt;" style="text;html=1;align=center;verticalAlign=middle;whiteSpace=wrap;rounded=0;" parent="1" vertex="1">
          <mxGeometry x="169" y="760" width="80" height="50" as="geometry" />
        </mxCell>
        <mxCell id="_7QspawQS4Bvhs6pEfHS-92" value="&lt;b&gt;&lt;font color=&quot;#ff6666&quot; style=&quot;font-size: 24px;&quot;&gt;4&lt;/font&gt;&lt;/b&gt;" style="text;html=1;align=center;verticalAlign=middle;whiteSpace=wrap;rounded=0;" parent="1" vertex="1">
          <mxGeometry x="114.9" y="900" width="80" height="50" as="geometry" />
        </mxCell>
        <mxCell id="_7QspawQS4Bvhs6pEfHS-93" value="" style="ellipse;whiteSpace=wrap;html=1;opacity=50;strokeColor=#3700CC;align=center;verticalAlign=middle;fontFamily=Helvetica;fontSize=12;fontColor=#ffffff;fillColor=#4C303B;" parent="1" vertex="1">
          <mxGeometry x="5" y="510" width="175" height="75" as="geometry" />
        </mxCell>
        <mxCell id="_7QspawQS4Bvhs6pEfHS-94" value="&lt;b style=&quot;font-size: 16px;&quot;&gt;&lt;font color=&quot;#ff6666&quot; style=&quot;font-size: 16px;&quot;&gt;1&lt;/font&gt;&lt;/b&gt;" style="text;html=1;align=center;verticalAlign=middle;whiteSpace=wrap;rounded=0;fontSize=16;" parent="1" vertex="1">
          <mxGeometry x="110" y="510" width="60" height="40" as="geometry" />
        </mxCell>
        <mxCell id="_7QspawQS4Bvhs6pEfHS-95" value="&lt;b&gt;&lt;font color=&quot;#ff6666&quot; style=&quot;font-size: 24px;&quot;&gt;1&lt;/font&gt;&lt;/b&gt;" style="text;html=1;align=center;verticalAlign=middle;whiteSpace=wrap;rounded=0;" parent="1" vertex="1">
          <mxGeometry x="160" y="410" width="80" height="50" as="geometry" />
        </mxCell>
        <mxCell id="_7QspawQS4Bvhs6pEfHS-98" value="" style="shape=singleArrow;direction=west;whiteSpace=wrap;html=1;" parent="1" vertex="1">
          <mxGeometry x="265.5" y="-420" width="50" height="30" as="geometry" />
        </mxCell>
        <mxCell id="_7QspawQS4Bvhs6pEfHS-99" value="" style="shape=singleArrow;direction=west;whiteSpace=wrap;html=1;" parent="1" vertex="1">
          <mxGeometry x="580" y="-420" width="50" height="30" as="geometry" />
        </mxCell>
        <mxCell id="_7QspawQS4Bvhs6pEfHS-100" value="" style="shape=singleArrow;direction=west;whiteSpace=wrap;html=1;" parent="1" vertex="1">
          <mxGeometry x="770" y="581" width="50" height="30" as="geometry" />
        </mxCell>
        <mxCell id="_7QspawQS4Bvhs6pEfHS-101" value="" style="shape=singleArrow;direction=west;whiteSpace=wrap;html=1;" parent="1" vertex="1">
          <mxGeometry x="580" y="1530" width="50" height="30" as="geometry" />
        </mxCell>
        <mxCell id="_7QspawQS4Bvhs6pEfHS-102" value="Добавить в начало очереди" style="rounded=0;whiteSpace=wrap;html=1;" parent="1" vertex="1">
          <mxGeometry x="280" y="-370" width="150" height="60" as="geometry" />
        </mxCell>
        <mxCell id="_7QspawQS4Bvhs6pEfHS-103" value="Добавить видео в плейлист" style="rounded=0;whiteSpace=wrap;html=1;" parent="1" vertex="1">
          <mxGeometry x="281" y="-290" width="150" height="60" as="geometry" />
        </mxCell>
        <mxCell id="_7QspawQS4Bvhs6pEfHS-104" value="Добавить канал в папку" style="rounded=0;whiteSpace=wrap;html=1;strokeWidth=3;fillColor=#f8cecc;strokeColor=#b85450;" parent="1" vertex="1">
          <mxGeometry x="281" y="-210" width="150" height="60" as="geometry" />
        </mxCell>
        <mxCell id="_7QspawQS4Bvhs6pEfHS-105" value="Поделиться" style="rounded=0;whiteSpace=wrap;html=1;" parent="1" vertex="1">
          <mxGeometry x="280" y="-130" width="150" height="60" as="geometry" />
        </mxCell>
        <mxCell id="_7QspawQS4Bvhs6pEfHS-109" value="" style="group" parent="1" vertex="1" connectable="0">
          <mxGeometry x="680" y="-430" width="74.5" height="36" as="geometry" />
        </mxCell>
        <mxCell id="_7QspawQS4Bvhs6pEfHS-107" value="&lt;font style=&quot;font-size: 15px;&quot;&gt;Готово&lt;/font&gt;" style="text;html=1;align=center;verticalAlign=middle;whiteSpace=wrap;rounded=0;" parent="_7QspawQS4Bvhs6pEfHS-109" vertex="1">
          <mxGeometry x="14.5" y="6" width="60" height="30" as="geometry" />
        </mxCell>
        <mxCell id="_7QspawQS4Bvhs6pEfHS-108" value="" style="verticalLabelPosition=bottom;verticalAlign=top;html=1;shape=mxgraph.basic.tick" parent="_7QspawQS4Bvhs6pEfHS-109" vertex="1">
          <mxGeometry width="30" height="30" as="geometry" />
        </mxCell>
        <mxCell id="_7QspawQS4Bvhs6pEfHS-110" value="" style="group" parent="1" vertex="1" connectable="0">
          <mxGeometry x="880" y="570" width="74.5" height="36" as="geometry" />
        </mxCell>
        <mxCell id="_7QspawQS4Bvhs6pEfHS-111" value="&lt;font style=&quot;font-size: 15px;&quot;&gt;Готово&lt;/font&gt;" style="text;html=1;align=center;verticalAlign=middle;whiteSpace=wrap;rounded=0;" parent="_7QspawQS4Bvhs6pEfHS-110" vertex="1">
          <mxGeometry x="14.5" y="6" width="60" height="30" as="geometry" />
        </mxCell>
        <mxCell id="_7QspawQS4Bvhs6pEfHS-112" value="" style="verticalLabelPosition=bottom;verticalAlign=top;html=1;shape=mxgraph.basic.tick" parent="_7QspawQS4Bvhs6pEfHS-110" vertex="1">
          <mxGeometry width="30" height="30" as="geometry" />
        </mxCell>
        <mxCell id="_7QspawQS4Bvhs6pEfHS-117" value="" style="whiteSpace=wrap;html=1;aspect=fixed;" parent="1" vertex="1">
          <mxGeometry x="575" y="-320" width="30" height="30" as="geometry" />
        </mxCell>
        <mxCell id="_7QspawQS4Bvhs6pEfHS-115" value="" style="verticalLabelPosition=bottom;verticalAlign=top;html=1;shape=mxgraph.basic.tick" parent="1" vertex="1">
          <mxGeometry x="575" y="-320" width="30" height="30" as="geometry" />
        </mxCell>
        <mxCell id="_7QspawQS4Bvhs6pEfHS-118" value="" style="whiteSpace=wrap;html=1;aspect=fixed;" parent="1" vertex="1">
          <mxGeometry x="575" y="-230" width="30" height="30" as="geometry" />
        </mxCell>
        <mxCell id="_7QspawQS4Bvhs6pEfHS-119" value="" style="verticalLabelPosition=bottom;verticalAlign=top;html=1;shape=mxgraph.basic.tick" parent="1" vertex="1">
          <mxGeometry x="575" y="-230" width="30" height="30" as="geometry" />
        </mxCell>
        <mxCell id="_7QspawQS4Bvhs6pEfHS-120" value="" style="whiteSpace=wrap;html=1;aspect=fixed;" parent="1" vertex="1">
          <mxGeometry x="575" y="-275" width="30" height="30" as="geometry" />
        </mxCell>
        <mxCell id="_7QspawQS4Bvhs6pEfHS-121" value="Папка 1" style="text;html=1;align=center;verticalAlign=middle;whiteSpace=wrap;rounded=0;fontSize=15;" parent="1" vertex="1">
          <mxGeometry x="613.5" y="-319" width="60" height="30" as="geometry" />
        </mxCell>
        <mxCell id="_7QspawQS4Bvhs6pEfHS-122" value="Папка 2" style="text;html=1;align=center;verticalAlign=middle;whiteSpace=wrap;rounded=0;fontSize=15;" parent="1" vertex="1">
          <mxGeometry x="612.5" y="-275" width="60" height="30" as="geometry" />
        </mxCell>
        <mxCell id="_7QspawQS4Bvhs6pEfHS-123" value="Папка 3" style="text;html=1;align=center;verticalAlign=middle;whiteSpace=wrap;rounded=0;fontSize=15;" parent="1" vertex="1">
          <mxGeometry x="613.5" y="-230" width="60" height="30" as="geometry" />
        </mxCell>
        <mxCell id="_7QspawQS4Bvhs6pEfHS-124" value="" style="ellipse;whiteSpace=wrap;html=1;aspect=fixed;fillColor=#f8cecc;strokeColor=#b85450;opacity=50;" parent="1" vertex="1">
          <mxGeometry x="565.05" y="-239.95" width="49.9" height="49.9" as="geometry" />
        </mxCell>
        <mxCell id="_7QspawQS4Bvhs6pEfHS-125" value="" style="ellipse;whiteSpace=wrap;html=1;aspect=fixed;fillColor=#f8cecc;strokeColor=#b85450;opacity=50;" parent="1" vertex="1">
          <mxGeometry x="565.05" y="-324.9" width="49.9" height="49.9" as="geometry" />
        </mxCell>
        <mxCell id="_7QspawQS4Bvhs6pEfHS-127" value="&lt;font style=&quot;font-size: 15px;&quot;&gt;Видео 1&lt;/font&gt;" style="rounded=0;whiteSpace=wrap;html=1;" parent="1" vertex="1">
          <mxGeometry x="276.5" y="80" width="159" height="160" as="geometry" />
        </mxCell>
        <mxCell id="_7QspawQS4Bvhs6pEfHS-128" value="Название канала" style="text;html=1;align=center;verticalAlign=middle;whiteSpace=wrap;rounded=0;" parent="1" vertex="1">
          <mxGeometry x="276.5" y="250" width="60" height="30" as="geometry" />
        </mxCell>
        <mxCell id="_7QspawQS4Bvhs6pEfHS-129" value="Название канала" style="text;html=1;align=center;verticalAlign=middle;whiteSpace=wrap;rounded=0;" parent="1" vertex="1">
          <mxGeometry x="10" y="601" width="60" height="30" as="geometry" />
        </mxCell>
        <mxCell id="_7QspawQS4Bvhs6pEfHS-130" value="Подписаться" style="ellipse;whiteSpace=wrap;html=1;" parent="1" vertex="1">
          <mxGeometry x="360" y="245" width="80" height="35" as="geometry" />
        </mxCell>
        <mxCell id="_7QspawQS4Bvhs6pEfHS-131" value="like | dislike" style="ellipse;whiteSpace=wrap;html=1;" parent="1" vertex="1">
          <mxGeometry x="260" y="290" width="80" height="35" as="geometry" />
        </mxCell>
        <mxCell id="_7QspawQS4Bvhs6pEfHS-136" value="&lt;font style=&quot;font-size: 18px;&quot;&gt;Shorts&lt;/font&gt;" style="rounded=0;whiteSpace=wrap;html=1;" parent="1" vertex="1">
          <mxGeometry x="281" y="551" width="119" height="349" as="geometry" />
        </mxCell>
        <mxCell id="_7QspawQS4Bvhs6pEfHS-137" value="" style="ellipse;whiteSpace=wrap;html=1;aspect=fixed;fillColor=#f8cecc;strokeColor=#b85450;opacity=50;rounded=0;strokeWidth=3;align=center;verticalAlign=middle;fontFamily=Helvetica;fontSize=12;fontColor=default;" parent="1" vertex="1">
          <mxGeometry x="398.6" y="551" width="56.9" height="56.9" as="geometry" />
        </mxCell>
        <mxCell id="_7QspawQS4Bvhs6pEfHS-138" value="" style="html=1;verticalLabelPosition=bottom;align=center;labelBackgroundColor=#ffffff;verticalAlign=top;strokeWidth=2;strokeColor=#0080F0;shadow=0;dashed=0;shape=mxgraph.ios7.icons.most_viewed;pointerEvents=1" parent="1" vertex="1">
          <mxGeometry x="406.05" y="563.05" width="40" height="32.8" as="geometry" />
        </mxCell>
        <mxCell id="_7QspawQS4Bvhs6pEfHS-133" value="" style="ellipse;whiteSpace=wrap;html=1;aspect=fixed;fillColor=#f8cecc;strokeColor=#b85450;opacity=50;rounded=0;strokeWidth=3;align=center;verticalAlign=middle;fontFamily=Helvetica;fontSize=12;fontColor=default;" parent="1" vertex="1">
          <mxGeometry x="371.55" y="293.1" width="56.9" height="56.9" as="geometry" />
        </mxCell>
        <mxCell id="_7QspawQS4Bvhs6pEfHS-132" value="" style="html=1;verticalLabelPosition=bottom;align=center;labelBackgroundColor=#ffffff;verticalAlign=top;strokeWidth=2;strokeColor=#0080F0;shadow=0;dashed=0;shape=mxgraph.ios7.icons.most_viewed;pointerEvents=1" parent="1" vertex="1">
          <mxGeometry x="377" y="304.6" width="40" height="33.9" as="geometry" />
        </mxCell>
        <mxCell id="_7QspawQS4Bvhs6pEfHS-139" value="like | dislike" style="ellipse;whiteSpace=wrap;html=1;" parent="1" vertex="1">
          <mxGeometry x="387.05" y="631" width="80" height="35" as="geometry" />
        </mxCell>
        <mxCell id="_7QspawQS4Bvhs6pEfHS-141" value="comment" style="ellipse;whiteSpace=wrap;html=1;" parent="1" vertex="1">
          <mxGeometry x="387.05" y="680" width="80" height="35" as="geometry" />
        </mxCell>
        <mxCell id="_7QspawQS4Bvhs6pEfHS-142" value="" style="whiteSpace=wrap;html=1;aspect=fixed;" parent="1" vertex="1">
          <mxGeometry x="770" y="660" width="30" height="30" as="geometry" />
        </mxCell>
        <mxCell id="_7QspawQS4Bvhs6pEfHS-143" value="" style="verticalLabelPosition=bottom;verticalAlign=top;html=1;shape=mxgraph.basic.tick" parent="1" vertex="1">
          <mxGeometry x="770" y="660" width="30" height="30" as="geometry" />
        </mxCell>
        <mxCell id="_7QspawQS4Bvhs6pEfHS-144" value="" style="whiteSpace=wrap;html=1;aspect=fixed;" parent="1" vertex="1">
          <mxGeometry x="770" y="750" width="30" height="30" as="geometry" />
        </mxCell>
        <mxCell id="_7QspawQS4Bvhs6pEfHS-146" value="" style="whiteSpace=wrap;html=1;aspect=fixed;" parent="1" vertex="1">
          <mxGeometry x="770" y="705" width="30" height="30" as="geometry" />
        </mxCell>
        <mxCell id="_7QspawQS4Bvhs6pEfHS-147" value="Канал 1" style="text;html=1;align=center;verticalAlign=middle;whiteSpace=wrap;rounded=0;fontSize=15;" parent="1" vertex="1">
          <mxGeometry x="808.5" y="661" width="60" height="30" as="geometry" />
        </mxCell>
        <mxCell id="_7QspawQS4Bvhs6pEfHS-148" value="Канал 2" style="text;html=1;align=center;verticalAlign=middle;whiteSpace=wrap;rounded=0;fontSize=15;" parent="1" vertex="1">
          <mxGeometry x="807.5" y="705" width="60" height="30" as="geometry" />
        </mxCell>
        <mxCell id="_7QspawQS4Bvhs6pEfHS-149" value="Канал 3" style="text;html=1;align=center;verticalAlign=middle;whiteSpace=wrap;rounded=0;fontSize=15;" parent="1" vertex="1">
          <mxGeometry x="808.5" y="750" width="60" height="30" as="geometry" />
        </mxCell>
        <mxCell id="_7QspawQS4Bvhs6pEfHS-150" value="" style="ellipse;whiteSpace=wrap;html=1;aspect=fixed;fillColor=#f8cecc;strokeColor=#b85450;opacity=50;" parent="1" vertex="1">
          <mxGeometry x="762.75" y="651.05" width="49.9" height="49.9" as="geometry" />
        </mxCell>
        <mxCell id="_7QspawQS4Bvhs6pEfHS-145" value="" style="verticalLabelPosition=bottom;verticalAlign=top;html=1;shape=mxgraph.basic.tick" parent="1" vertex="1">
          <mxGeometry x="770" y="705" width="30" height="30" as="geometry" />
        </mxCell>
        <mxCell id="_7QspawQS4Bvhs6pEfHS-151" value="" style="ellipse;whiteSpace=wrap;html=1;aspect=fixed;fillColor=#f8cecc;strokeColor=#b85450;opacity=50;" parent="1" vertex="1">
          <mxGeometry x="760.05" y="695.05" width="49.9" height="49.9" as="geometry" />
        </mxCell>
        <mxCell id="_7QspawQS4Bvhs6pEfHS-179" value="" style="group" parent="1" vertex="1" connectable="0">
          <mxGeometry x="270" y="1080" width="50" height="50" as="geometry" />
        </mxCell>
        <mxCell id="_7QspawQS4Bvhs6pEfHS-163" value="" style="ellipse;whiteSpace=wrap;html=1;aspect=fixed;" parent="_7QspawQS4Bvhs6pEfHS-179" vertex="1">
          <mxGeometry width="50" height="50" as="geometry" />
        </mxCell>
        <mxCell id="_7QspawQS4Bvhs6pEfHS-164" value="" style="image;aspect=fixed;html=1;points=[];align=center;fontSize=12;image=img/lib/azure2/ai_machine_learning/Face_APIs.svg;" parent="_7QspawQS4Bvhs6pEfHS-179" vertex="1">
          <mxGeometry x="6.941935483870962" y="8.31483870967725" width="36.12903225806451" height="36.12903225806451" as="geometry" />
        </mxCell>
        <mxCell id="_7QspawQS4Bvhs6pEfHS-180" value="" style="group" parent="1" vertex="1" connectable="0">
          <mxGeometry x="270" y="1150" width="50" height="50" as="geometry" />
        </mxCell>
        <mxCell id="_7QspawQS4Bvhs6pEfHS-181" value="" style="ellipse;whiteSpace=wrap;html=1;aspect=fixed;" parent="_7QspawQS4Bvhs6pEfHS-180" vertex="1">
          <mxGeometry width="50" height="50" as="geometry" />
        </mxCell>
        <mxCell id="_7QspawQS4Bvhs6pEfHS-182" value="" style="image;aspect=fixed;html=1;points=[];align=center;fontSize=12;image=img/lib/azure2/ai_machine_learning/Face_APIs.svg;" parent="_7QspawQS4Bvhs6pEfHS-180" vertex="1">
          <mxGeometry x="6.941935483870962" y="8.31483870967725" width="36.12903225806451" height="36.12903225806451" as="geometry" />
        </mxCell>
        <mxCell id="_7QspawQS4Bvhs6pEfHS-183" value="" style="group" parent="1" vertex="1" connectable="0">
          <mxGeometry x="270" y="1220" width="50" height="50" as="geometry" />
        </mxCell>
        <mxCell id="_7QspawQS4Bvhs6pEfHS-184" value="" style="ellipse;whiteSpace=wrap;html=1;aspect=fixed;" parent="_7QspawQS4Bvhs6pEfHS-183" vertex="1">
          <mxGeometry width="50" height="50" as="geometry" />
        </mxCell>
        <mxCell id="_7QspawQS4Bvhs6pEfHS-185" value="" style="image;aspect=fixed;html=1;points=[];align=center;fontSize=12;image=img/lib/azure2/ai_machine_learning/Face_APIs.svg;" parent="_7QspawQS4Bvhs6pEfHS-183" vertex="1">
          <mxGeometry x="6.941935483870962" y="8.31483870967725" width="36.12903225806451" height="36.12903225806451" as="geometry" />
        </mxCell>
        <mxCell id="_7QspawQS4Bvhs6pEfHS-186" value="Канал 1" style="text;html=1;align=center;verticalAlign=middle;whiteSpace=wrap;rounded=0;fontSize=15;" parent="1" vertex="1">
          <mxGeometry x="320" y="1090" width="60" height="30" as="geometry" />
        </mxCell>
        <mxCell id="_7QspawQS4Bvhs6pEfHS-187" value="Канал 2" style="text;html=1;align=center;verticalAlign=middle;whiteSpace=wrap;rounded=0;fontSize=15;" parent="1" vertex="1">
          <mxGeometry x="320" y="1160" width="60" height="30" as="geometry" />
        </mxCell>
        <mxCell id="_7QspawQS4Bvhs6pEfHS-188" value="Канал 3" style="text;html=1;align=center;verticalAlign=middle;whiteSpace=wrap;rounded=0;fontSize=15;" parent="1" vertex="1">
          <mxGeometry x="320" y="1230" width="60" height="30" as="geometry" />
        </mxCell>
        <mxCell id="_7QspawQS4Bvhs6pEfHS-189" value="" style="html=1;verticalLabelPosition=bottom;align=center;labelBackgroundColor=#ffffff;verticalAlign=top;strokeWidth=2;strokeColor=#666666;shadow=0;dashed=0;shape=mxgraph.ios7.icons.bell;fillColor=#f5f5f5;fontColor=#333333;" parent="1" vertex="1">
          <mxGeometry x="427" y="1090" width="24" height="21.55" as="geometry" />
        </mxCell>
        <mxCell id="_7QspawQS4Bvhs6pEfHS-190" value="" style="html=1;verticalLabelPosition=bottom;align=center;labelBackgroundColor=#ffffff;verticalAlign=top;strokeWidth=2;strokeColor=#666666;shadow=0;dashed=0;shape=mxgraph.ios7.icons.bell;fillColor=#f5f5f5;fontColor=#333333;" parent="1" vertex="1">
          <mxGeometry x="427" y="1163.45" width="24" height="21.55" as="geometry" />
        </mxCell>
        <mxCell id="_7QspawQS4Bvhs6pEfHS-191" value="" style="html=1;verticalLabelPosition=bottom;align=center;labelBackgroundColor=#ffffff;verticalAlign=top;strokeWidth=2;strokeColor=#666666;shadow=0;dashed=0;shape=mxgraph.ios7.icons.bell;fillColor=#f5f5f5;fontColor=#333333;" parent="1" vertex="1">
          <mxGeometry x="428.45" y="1234.23" width="24" height="21.55" as="geometry" />
        </mxCell>
        <mxCell id="_7QspawQS4Bvhs6pEfHS-202" value="История запросов" style="rounded=0;whiteSpace=wrap;html=1;fontSize=15;" parent="1" vertex="1">
          <mxGeometry x="302.5" y="1570" width="120" height="60" as="geometry" />
        </mxCell>
        <mxCell id="_7QspawQS4Bvhs6pEfHS-203" value="Плейлисты" style="rounded=0;whiteSpace=wrap;html=1;fontSize=15;" parent="1" vertex="1">
          <mxGeometry x="302.5" y="1670" width="120" height="60" as="geometry" />
        </mxCell>
        <mxCell id="_7QspawQS4Bvhs6pEfHS-204" value="Папки каналов" style="rounded=0;whiteSpace=wrap;html=1;fontSize=15;fillColor=#f8cecc;strokeColor=#b85450;" parent="1" vertex="1">
          <mxGeometry x="295" y="1760" width="127.5" height="70" as="geometry" />
        </mxCell>
        <mxCell id="_7QspawQS4Bvhs6pEfHS-205" value="Настройки" style="rounded=0;whiteSpace=wrap;html=1;fontSize=15;" parent="1" vertex="1">
          <mxGeometry x="300" y="1850" width="120" height="60" as="geometry" />
        </mxCell>
        <mxCell id="_7QspawQS4Bvhs6pEfHS-207" value="" style="sketch=0;pointerEvents=1;shadow=0;dashed=0;html=1;strokeColor=none;fillColor=#505050;labelPosition=center;verticalLabelPosition=bottom;verticalAlign=top;outlineConnect=0;align=center;shape=mxgraph.office.concepts.folder;" parent="1" vertex="1">
          <mxGeometry x="579.5" y="1660" width="50.5" height="50" as="geometry" />
        </mxCell>
        <mxCell id="_7QspawQS4Bvhs6pEfHS-208" value="" style="sketch=0;pointerEvents=1;shadow=0;dashed=0;html=1;strokeColor=none;fillColor=#505050;labelPosition=center;verticalLabelPosition=bottom;verticalAlign=top;outlineConnect=0;align=center;shape=mxgraph.office.concepts.folder;" parent="1" vertex="1">
          <mxGeometry x="580" y="1740" width="50.5" height="50" as="geometry" />
        </mxCell>
        <mxCell id="_7QspawQS4Bvhs6pEfHS-209" value="Папка 1" style="text;html=1;align=center;verticalAlign=middle;whiteSpace=wrap;rounded=0;fontSize=15;" parent="1" vertex="1">
          <mxGeometry x="641.75" y="1600" width="60" height="30" as="geometry" />
        </mxCell>
        <mxCell id="_7QspawQS4Bvhs6pEfHS-210" value="Папка 2" style="text;html=1;align=center;verticalAlign=middle;whiteSpace=wrap;rounded=0;fontSize=15;" parent="1" vertex="1">
          <mxGeometry x="641.25" y="1670" width="60" height="30" as="geometry" />
        </mxCell>
        <mxCell id="_7QspawQS4Bvhs6pEfHS-211" value="Папка 3" style="text;html=1;align=center;verticalAlign=middle;whiteSpace=wrap;rounded=0;fontSize=15;" parent="1" vertex="1">
          <mxGeometry x="641.75" y="1750" width="60" height="30" as="geometry" />
        </mxCell>
        <mxCell id="_7QspawQS4Bvhs6pEfHS-212" value="В папке 1 будет лежать 2 канала (канал1 и канал2), которые мы добавили одновременно с экрана 0.3, а также ещё один канал который мы добавили прямиком из видео или шортса на экране 0.2&amp;nbsp;" style="text;html=1;align=center;verticalAlign=middle;whiteSpace=wrap;rounded=0;fontSize=15;" parent="1" vertex="1">
          <mxGeometry x="1380" y="330" width="170" height="180" as="geometry" />
        </mxCell>
        <mxCell id="_7QspawQS4Bvhs6pEfHS-213" value="" style="shape=singleArrow;direction=west;whiteSpace=wrap;html=1;" parent="1" vertex="1">
          <mxGeometry x="1364.5" y="581" width="50" height="30" as="geometry" />
        </mxCell>
        <mxCell id="_7QspawQS4Bvhs6pEfHS-214" value="Канал 2" style="text;html=1;align=center;verticalAlign=middle;whiteSpace=wrap;rounded=0;fontSize=15;" parent="1" vertex="1">
          <mxGeometry x="1420" y="720" width="60" height="30" as="geometry" />
        </mxCell>
        <mxCell id="_7QspawQS4Bvhs6pEfHS-215" value="" style="group" parent="1" vertex="1" connectable="0">
          <mxGeometry x="1370" y="710" width="50" height="50" as="geometry" />
        </mxCell>
        <mxCell id="_7QspawQS4Bvhs6pEfHS-216" value="" style="ellipse;whiteSpace=wrap;html=1;aspect=fixed;" parent="_7QspawQS4Bvhs6pEfHS-215" vertex="1">
          <mxGeometry width="50" height="50" as="geometry" />
        </mxCell>
        <mxCell id="_7QspawQS4Bvhs6pEfHS-217" value="" style="image;aspect=fixed;html=1;points=[];align=center;fontSize=12;image=img/lib/azure2/ai_machine_learning/Face_APIs.svg;" parent="_7QspawQS4Bvhs6pEfHS-215" vertex="1">
          <mxGeometry x="6.941935483870962" y="8.31483870967725" width="36.12903225806451" height="36.12903225806451" as="geometry" />
        </mxCell>
        <mxCell id="_7QspawQS4Bvhs6pEfHS-218" value="Канал 1" style="text;html=1;align=center;verticalAlign=middle;whiteSpace=wrap;rounded=0;fontSize=15;" parent="1" vertex="1">
          <mxGeometry x="1420" y="650" width="60" height="30" as="geometry" />
        </mxCell>
        <mxCell id="_7QspawQS4Bvhs6pEfHS-219" value="" style="group" parent="1" vertex="1" connectable="0">
          <mxGeometry x="1370" y="640" width="50" height="50" as="geometry" />
        </mxCell>
        <mxCell id="_7QspawQS4Bvhs6pEfHS-220" value="" style="ellipse;whiteSpace=wrap;html=1;aspect=fixed;" parent="_7QspawQS4Bvhs6pEfHS-219" vertex="1">
          <mxGeometry width="50" height="50" as="geometry" />
        </mxCell>
        <mxCell id="_7QspawQS4Bvhs6pEfHS-221" value="" style="image;aspect=fixed;html=1;points=[];align=center;fontSize=12;image=img/lib/azure2/ai_machine_learning/Face_APIs.svg;" parent="_7QspawQS4Bvhs6pEfHS-219" vertex="1">
          <mxGeometry x="6.941935483870962" y="8.31483870967725" width="36.12903225806451" height="36.12903225806451" as="geometry" />
        </mxCell>
        <mxCell id="_7QspawQS4Bvhs6pEfHS-222" value="" style="group" parent="1" vertex="1" connectable="0">
          <mxGeometry x="1370" y="780" width="50" height="50" as="geometry" />
        </mxCell>
        <mxCell id="_7QspawQS4Bvhs6pEfHS-223" value="" style="ellipse;whiteSpace=wrap;html=1;aspect=fixed;" parent="_7QspawQS4Bvhs6pEfHS-222" vertex="1">
          <mxGeometry width="50" height="50" as="geometry" />
        </mxCell>
        <mxCell id="_7QspawQS4Bvhs6pEfHS-224" value="" style="image;aspect=fixed;html=1;points=[];align=center;fontSize=12;image=img/lib/azure2/ai_machine_learning/Face_APIs.svg;" parent="_7QspawQS4Bvhs6pEfHS-222" vertex="1">
          <mxGeometry x="6.941935483870962" y="8.31483870967725" width="36.12903225806451" height="36.12903225806451" as="geometry" />
        </mxCell>
        <mxCell id="_7QspawQS4Bvhs6pEfHS-225" value="Название канала" style="text;html=1;align=center;verticalAlign=middle;whiteSpace=wrap;rounded=0;fontSize=15;" parent="1" vertex="1">
          <mxGeometry x="1414.5" y="790" width="90" height="30" as="geometry" />
        </mxCell>
        <mxCell id="_7QspawQS4Bvhs6pEfHS-226" value="" style="endArrow=classic;html=1;rounded=0;exitX=0.5;exitY=1;exitDx=0;exitDy=0;entryX=0.5;entryY=0;entryDx=0;entryDy=0;" parent="1" source="_7QspawQS4Bvhs6pEfHS-212" target="-C6muNnnNIedRkviX2KE-52" edge="1">
          <mxGeometry width="50" height="50" relative="1" as="geometry">
            <mxPoint x="840" y="530" as="sourcePoint" />
            <mxPoint x="890" y="480" as="targetPoint" />
          </mxGeometry>
        </mxCell>
        <mxCell id="_7QspawQS4Bvhs6pEfHS-231" value="Папка 3" style="text;html=1;align=center;verticalAlign=middle;whiteSpace=wrap;rounded=0;fontSize=11;fontFamily=Helvetica;fontColor=default;labelBackgroundColor=default;" parent="1" vertex="1">
          <mxGeometry x="1718.5" y="510" width="60" height="30" as="geometry" />
        </mxCell>
        <mxCell id="_7QspawQS4Bvhs6pEfHS-232" value="" style="whiteSpace=wrap;html=1;aspect=fixed;rounded=0;opacity=70;strokeColor=#676565;align=center;verticalAlign=middle;fontFamily=Helvetica;fontSize=11;fontColor=default;labelBackgroundColor=default;" parent="1" vertex="1">
          <mxGeometry x="1680" y="510" width="30" height="30" as="geometry" />
        </mxCell>
        <mxCell id="_7QspawQS4Bvhs6pEfHS-234" value="Папка 2" style="text;html=1;align=center;verticalAlign=middle;whiteSpace=wrap;rounded=0;fontSize=15;" parent="1" vertex="1">
          <mxGeometry x="1718.5" y="460" width="60" height="30" as="geometry" />
        </mxCell>
        <mxCell id="_7QspawQS4Bvhs6pEfHS-235" value="" style="whiteSpace=wrap;html=1;aspect=fixed;" parent="1" vertex="1">
          <mxGeometry x="1680" y="460" width="30" height="30" as="geometry" />
        </mxCell>
        <mxCell id="_7QspawQS4Bvhs6pEfHS-236" value="Папка 1" style="text;html=1;align=center;verticalAlign=middle;whiteSpace=wrap;rounded=0;fontSize=11;fontFamily=Helvetica;fontColor=default;labelBackgroundColor=default;" parent="1" vertex="1">
          <mxGeometry x="1718.5" y="410" width="60" height="30" as="geometry" />
        </mxCell>
        <mxCell id="_7QspawQS4Bvhs6pEfHS-237" value="" style="whiteSpace=wrap;html=1;aspect=fixed;rounded=0;opacity=70;strokeColor=#676565;align=center;verticalAlign=middle;fontFamily=Helvetica;fontSize=11;fontColor=default;labelBackgroundColor=default;" parent="1" vertex="1">
          <mxGeometry x="1680" y="410" width="30" height="30" as="geometry" />
        </mxCell>
        <mxCell id="_7QspawQS4Bvhs6pEfHS-238" value="" style="shape=singleArrow;direction=west;whiteSpace=wrap;html=1;" parent="1" vertex="1">
          <mxGeometry x="1670.12" y="320" width="50" height="30" as="geometry" />
        </mxCell>
        <mxCell id="_7QspawQS4Bvhs6pEfHS-239" value="" style="group" parent="1" vertex="1" connectable="0">
          <mxGeometry x="1780" y="310" width="74.5" height="36" as="geometry" />
        </mxCell>
        <mxCell id="_7QspawQS4Bvhs6pEfHS-240" value="&lt;font style=&quot;font-size: 15px;&quot;&gt;Готово&lt;/font&gt;" style="text;html=1;align=center;verticalAlign=middle;whiteSpace=wrap;rounded=0;" parent="_7QspawQS4Bvhs6pEfHS-239" vertex="1">
          <mxGeometry x="14.5" y="6" width="60" height="30" as="geometry" />
        </mxCell>
        <mxCell id="_7QspawQS4Bvhs6pEfHS-241" value="" style="verticalLabelPosition=bottom;verticalAlign=top;html=1;shape=mxgraph.basic.tick" parent="_7QspawQS4Bvhs6pEfHS-239" vertex="1">
          <mxGeometry width="30" height="30" as="geometry" />
        </mxCell>
        <mxCell id="_7QspawQS4Bvhs6pEfHS-244" value="" style="whiteSpace=wrap;html=1;aspect=fixed;rounded=0;opacity=70;strokeColor=#676565;align=center;verticalAlign=middle;fontFamily=Helvetica;fontSize=11;fontColor=default;labelBackgroundColor=default;" parent="1" vertex="1">
          <mxGeometry x="2176.5" y="460" width="30" height="30" as="geometry" />
        </mxCell>
        <mxCell id="_7QspawQS4Bvhs6pEfHS-245" value="Канал 2" style="text;html=1;align=center;verticalAlign=middle;whiteSpace=wrap;rounded=0;fontSize=11;fontFamily=Helvetica;fontColor=default;labelBackgroundColor=default;" parent="1" vertex="1">
          <mxGeometry x="2215" y="460" width="60" height="30" as="geometry" />
        </mxCell>
        <mxCell id="_7QspawQS4Bvhs6pEfHS-248" value="" style="shape=singleArrow;direction=west;whiteSpace=wrap;html=1;" parent="1" vertex="1">
          <mxGeometry x="2170" y="320" width="50" height="30" as="geometry" />
        </mxCell>
        <mxCell id="_7QspawQS4Bvhs6pEfHS-249" value="" style="group" parent="1" vertex="1" connectable="0">
          <mxGeometry x="2279.88" y="310" width="74.5" height="36" as="geometry" />
        </mxCell>
        <mxCell id="_7QspawQS4Bvhs6pEfHS-250" value="&lt;font style=&quot;font-size: 15px;&quot;&gt;Готово&lt;/font&gt;" style="text;html=1;align=center;verticalAlign=middle;whiteSpace=wrap;rounded=0;" parent="_7QspawQS4Bvhs6pEfHS-249" vertex="1">
          <mxGeometry x="14.5" y="6" width="60" height="30" as="geometry" />
        </mxCell>
        <mxCell id="_7QspawQS4Bvhs6pEfHS-251" value="" style="verticalLabelPosition=bottom;verticalAlign=top;html=1;shape=mxgraph.basic.tick" parent="_7QspawQS4Bvhs6pEfHS-249" vertex="1">
          <mxGeometry width="30" height="30" as="geometry" />
        </mxCell>
        <mxCell id="_7QspawQS4Bvhs6pEfHS-252" value="" style="whiteSpace=wrap;html=1;aspect=fixed;rounded=0;opacity=70;strokeColor=#676565;align=center;verticalAlign=middle;fontFamily=Helvetica;fontSize=11;fontColor=default;labelBackgroundColor=default;" parent="1" vertex="1">
          <mxGeometry x="2176.5" y="410" width="30" height="30" as="geometry" />
        </mxCell>
        <mxCell id="_7QspawQS4Bvhs6pEfHS-253" value="" style="whiteSpace=wrap;html=1;aspect=fixed;" parent="1" vertex="1">
          <mxGeometry x="2176.5" y="510" width="30" height="30" as="geometry" />
        </mxCell>
        <mxCell id="_7QspawQS4Bvhs6pEfHS-254" value="Канал 3" style="text;html=1;align=center;verticalAlign=middle;whiteSpace=wrap;rounded=0;fontSize=15;" parent="1" vertex="1">
          <mxGeometry x="2215" y="510" width="60" height="30" as="geometry" />
        </mxCell>
        <mxCell id="_7QspawQS4Bvhs6pEfHS-255" value="Канал 1" style="text;html=1;align=center;verticalAlign=middle;whiteSpace=wrap;rounded=0;fontSize=11;fontFamily=Helvetica;fontColor=default;labelBackgroundColor=default;" parent="1" vertex="1">
          <mxGeometry x="2215" y="410" width="60" height="30" as="geometry" />
        </mxCell>
        <mxCell id="_7QspawQS4Bvhs6pEfHS-193" value="" style="ellipse;whiteSpace=wrap;html=1;aspect=fixed;fillColor=#f8cecc;strokeColor=#b85450;opacity=50;rounded=0;strokeWidth=3;align=center;verticalAlign=middle;fontFamily=Helvetica;fontSize=12;fontColor=default;container=0;" parent="1" vertex="1">
          <mxGeometry x="380" y="1078.9499999999998" width="43.66" height="43.66" as="geometry" />
        </mxCell>
        <mxCell id="m5-rh2qxfAI6a_0FLoVI-1" value="" style="sketch=0;pointerEvents=1;shadow=0;dashed=0;html=1;strokeColor=none;labelPosition=center;verticalLabelPosition=bottom;verticalAlign=top;outlineConnect=0;align=center;shape=mxgraph.office.concepts.folder;fillColor=#2072B8;" parent="1" vertex="1">
          <mxGeometry x="386.83000000000004" y="1225.78" width="30" height="30" as="geometry" />
        </mxCell>
        <mxCell id="m5-rh2qxfAI6a_0FLoVI-2" value="" style="sketch=0;pointerEvents=1;shadow=0;dashed=0;html=1;strokeColor=none;labelPosition=center;verticalLabelPosition=bottom;verticalAlign=top;outlineConnect=0;align=center;shape=mxgraph.office.concepts.folder;fillColor=#2072B8;" parent="1" vertex="1">
          <mxGeometry x="387.05" y="1082.2" width="30" height="30" as="geometry" />
        </mxCell>
        <mxCell id="m5-rh2qxfAI6a_0FLoVI-3" value="" style="sketch=0;pointerEvents=1;shadow=0;dashed=0;html=1;strokeColor=none;labelPosition=center;verticalLabelPosition=bottom;verticalAlign=top;outlineConnect=0;align=center;shape=mxgraph.office.concepts.folder;fillColor=#2072B8;" parent="1" vertex="1">
          <mxGeometry x="387.05" y="1159.22" width="30" height="30" as="geometry" />
        </mxCell>
        <mxCell id="9P0sogdfffshUX55kIWg-1" value="" style="sketch=0;pointerEvents=1;shadow=0;dashed=0;html=1;strokeColor=none;fillColor=#505050;labelPosition=center;verticalLabelPosition=bottom;verticalAlign=top;outlineConnect=0;align=center;shape=mxgraph.office.concepts.folder;" parent="1" vertex="1">
          <mxGeometry x="580" y="1590" width="50.5" height="50" as="geometry" />
        </mxCell>
        <mxCell id="9P0sogdfffshUX55kIWg-3" value="" style="shape=image;html=1;verticalAlign=top;verticalLabelPosition=bottom;labelBackgroundColor=#ffffff;imageAspect=0;aspect=fixed;image=https://cdn4.iconfinder.com/data/icons/evil-icons-user-interface/64/plus-128.png" parent="1" vertex="1">
          <mxGeometry x="706.5" y="1661" width="48" height="48" as="geometry" />
        </mxCell>
        <mxCell id="9P0sogdfffshUX55kIWg-4" value="" style="shape=image;html=1;verticalAlign=top;verticalLabelPosition=bottom;labelBackgroundColor=#ffffff;imageAspect=0;aspect=fixed;image=https://cdn4.iconfinder.com/data/icons/evil-icons-user-interface/64/plus-128.png" parent="1" vertex="1">
          <mxGeometry x="706.5" y="1741" width="48" height="48" as="geometry" />
        </mxCell>
        <mxCell id="9P0sogdfffshUX55kIWg-7" value="" style="ellipse;whiteSpace=wrap;html=1;aspect=fixed;fillColor=#f8cecc;strokeColor=#b85450;opacity=50;rounded=0;strokeWidth=3;align=center;verticalAlign=middle;fontFamily=Helvetica;fontSize=12;fontColor=default;container=0;" parent="1" vertex="1">
          <mxGeometry x="710" y="1592.75" width="44.5" height="44.5" as="geometry" />
        </mxCell>
        <mxCell id="9P0sogdfffshUX55kIWg-2" value="" style="shape=image;html=1;verticalAlign=top;verticalLabelPosition=bottom;labelBackgroundColor=#ffffff;imageAspect=0;aspect=fixed;image=https://cdn4.iconfinder.com/data/icons/evil-icons-user-interface/64/plus-128.png" parent="1" vertex="1">
          <mxGeometry x="710.5" y="1592.75" width="44" height="44" as="geometry" />
        </mxCell>
        <mxCell id="9P0sogdfffshUX55kIWg-8" value="" style="ellipse;whiteSpace=wrap;html=1;aspect=fixed;opacity=50;rounded=0;strokeWidth=3;align=center;verticalAlign=middle;fontFamily=Helvetica;fontSize=12;container=0;fillColor=#f5f5f5;strokeColor=#666666;fontColor=#333333;" parent="1" vertex="1">
          <mxGeometry x="568.42" y="1578.1699999999998" width="73.66" height="73.66" as="geometry" />
        </mxCell>
        <mxCell id="CpG0_nr_dbsK3sB9Em_u-2" value="" style="endArrow=classic;html=1;rounded=0;exitX=0.5;exitY=0;exitDx=0;exitDy=0;entryX=0.5;entryY=1;entryDx=0;entryDy=0;strokeColor=#000000;strokeWidth=3;align=center;verticalAlign=middle;fontFamily=Helvetica;fontSize=11;fontColor=default;labelBackgroundColor=default;" parent="1" source="9P0sogdfffshUX55kIWg-2" target="-C6muNnnNIedRkviX2KE-51" edge="1">
          <mxGeometry width="50" height="50" relative="1" as="geometry">
            <mxPoint x="700" y="1350" as="sourcePoint" />
            <mxPoint x="750" y="1300" as="targetPoint" />
          </mxGeometry>
        </mxCell>
      </root>
    </mxGraphModel>
  </diagram>
</mxfile>
